<svg _ngcontent-ng-c3370747836="" width="960" height="500"><g transform="translate(203.91892401506647,-18.11265215917865) scale(1.52483190467973)"><path d="M242.534,202.561L242.515,202.169L242.831,202.047L243.321,202.363L244.27,200.753L244.778,200.717L244.788,201.11L245.296,201.123L245.248,201.844L244.817,202.999L245.047,203.409L244.769,204.365L244.941,204.617L244.634,205.966L244.107,206.669L243.627,206.755L243.1,207.679L242.304,207.679L242.515,204.671Z" class="country" id="path084" data_id="084"></path><path d="M310.403,125.997L312.341,126.354L314.805,126.281L313.492,127.373L312.513,127.544L309.128,126.417L308.466,125.524L309.473,124.699ZM315.352,119.189L314.057,119.239L310.605,118.4L308.131,117.142L309.051,116.921L312.552,117.589L315.275,118.702ZM150.987,120.776L149.644,121.146L145.271,119.933L144.466,118.991L142.087,118.057L141.608,117.3L138.865,116.818L137.839,115.37L138.069,114.752L140.86,115.334L142.5,115.735L145.003,116.019L145.904,116.939L147.228,118.202L149.884,119.302ZM330.466,114.973L328.701,117.304L330.437,116.407L332.231,116.975L331.291,117.904L333.66,118.635L334.887,117.985L337.544,118.806L336.719,120.758L338.579,120.303L338.925,121.714L339.749,123.369L338.627,125.713L337.428,125.813L335.673,125.312L336.249,123.13L335.51,122.792L332.422,125.105L330.83,125.01L332.71,123.761L330.15,123.112L327.292,123.27L322.123,123.188L321.71,122.399L323.369,121.462L322.209,120.74L324.453,119.135L327.205,114.892L328.855,113.377L331.166,112.458L332.403,112.575L331.885,113.296ZM125.218,105.699L126.475,106.041L129.035,105.83L128.23,108.855L130.55,110.997L129.486,110.992L127.884,109.775L126.897,108.548L125.554,107.719L125.065,106.546ZM268.84,84.417L267.804,85.815L266.625,85.59L265.925,84.796L266.049,84.611L267.075,83.813L268.169,83.872ZM261.83,82.943L258.713,84.413L256.833,84.354L256.248,83.633L258.233,82.402L261.887,82.429ZM253.141,75.098L253.63,76.265L255.001,75.855L256.545,76.554L259.461,77.469L262.51,78.299L262.75,79.566L264.707,79.358L266.615,80.242L264.246,81.081L260.103,80.441L258.607,79.241L255.97,80.657L252.172,82.037L251.261,80.477L247.646,80.734L249.967,79.417L250.302,77.32L251.213,74.877ZM277.903,71.121L274.91,71.256L274.249,69.953L275.38,68.461L277.826,68.091L279.907,68.826L279.936,69.967L279.629,70.336ZM225.205,65.904L223.546,66.837L219.959,66.03L217.792,66.323L214.147,65.124L216.497,64.299L218.358,63.145L221.187,63.902L222.779,64.38L223.584,64.885ZM301.149,129.758L299.413,128.252L299.413,124.622L298.234,123.851L296.44,124.302L295.558,123.603L293.525,125.614L292.719,127.688L291.77,128.901L290.638,129.311L289.785,129.447L289.516,130.105L284.606,130.105L280.559,130.123L279.36,130.614L276.541,132.531L276.215,132.738L275.361,133.78L272.916,133.775L270.298,133.789L269.099,134.208L269.521,134.731L269.761,135.547L269.713,135.818L266.231,137.139L263.489,137.558L260.391,138.983L259.72,138.983L258.818,138.563L258.521,138.18L258.578,137.905L259.163,136.972L260.42,135.507L261.197,133.933L260.66,131.615L260.094,129.199L257.313,127.95L257.648,127.476L257.255,127.147L256.526,127.147L255.989,126.728L255.855,126.097L255.337,126.372L254.618,126.291L254.781,126.024L254.157,125.763L253.898,125.064L251.827,124.212L249.679,123.324L247.07,122.291L244.567,121.326L242.189,122.079L241.316,122.106L238.036,121.412L235.879,121.759L233.299,120.934L230.575,120.51L228.715,120.348L227.89,119.897L227.42,118.432L226.519,118.445L226.509,119.469L220.995,119.469L211.875,119.469L202.822,119.469L194.833,119.469L186.835,119.469L178.98,119.469L170.858,119.469L168.24,119.469L160.328,119.469L152.771,119.469L152.406,119.464L147.256,116.845L145.348,115.695L140.524,114.595L139.038,112.237L139.421,110.6L136.007,109.464L135.547,107.317L132.325,105.383L132.267,104.013L133.744,102.728L133.677,101.046L129.141,99.35L126.417,96.312L124.758,94.4L122.312,93.2L120.519,92.109L119.109,90.73L116.434,91.595L113.844,93.083L111.476,91.334L109.615,90.166L107.016,89.427L104.398,89.35L104.408,74.182L104.427,64.295L109.395,64.935L113.595,66.22L116.367,66.463L118.707,65.35L121.929,64.52L125.89,64.845L129.879,63.677L134.243,63.01L136.074,64.114L138.059,63.492L138.654,62.238L140.495,62.523L145.003,64.912L148.541,63.104L148.906,65.129L152.176,64.691L153.183,63.911L156.415,64.065L160.481,65.183L166.715,66.161L170.388,66.612L172.996,66.441L176.583,67.793L172.843,69.114L177.657,69.687L184.85,69.371L187.113,68.907L189.952,70.503L192.848,69.155L190.134,68.023L191.85,67.113L195.092,66.991L197.23,66.725L199.379,67.36L202.054,68.808L205.027,68.596L209.736,69.795L213.869,69.371L217.753,69.435L217.446,67.78L219.815,67.315L223.949,68.217L223.929,70.738L225.627,68.614L227.765,68.686L228.974,66.008L226.116,64.367L223.009,63.289L223.22,60.345L226.375,58.411L229.885,58.839L232.58,60.016L236.205,63.019L233.836,64.326L238.794,64.867L238.784,67.59L242.342,65.503L245.526,67.216L244.73,69.191L247.31,70.99L250.091,69.065L252.028,66.765L252.182,63.839L255.96,64.047L259.902,64.439L263.479,65.76L263.642,67.081L261.657,68.501L263.537,69.926L263.191,71.225L257.974,73.087L254.273,73.497L251.52,72.694L250.724,74.034L248.154,76.279L247.377,77.447L244.289,79.246L240.482,79.422L238.372,80.549L238.199,82.28L235.102,82.614L231.841,84.773L228.955,87.772L227.919,89.873L227.765,92.966L231.688,93.412L232.887,95.906L234.133,97.926L237.854,97.398L242.812,98.552L245.469,99.567L247.377,100.825L250.715,101.56L253.534,102.678L257.936,102.831L260.832,103.093L260.401,105.397L261.225,108.075L263.153,111.055L267.123,113.585L269.176,112.719L270.614,109.982L269.224,105.771L267.344,104.369L271.611,103.124L274.623,101.253L276.1,99.4L275.879,97.619L274.076,95.356L270.835,93.349L273.98,90.558L272.82,88.146L271.928,83.989L273.788,83.371L278.353,84.097L281.096,84.354L283.302,83.655L285.776,84.557L289.056,86.104L289.871,87.136L294.618,87.339L294.541,89.575L295.424,92.943L297.86,93.358L299.787,94.927L303.642,93.448L306.193,90.509L307.958,89.273L310.029,91.649L313.501,95.049L316.445,98.246L315.371,99.919L318.92,101.42L321.317,102.944L325.556,103.629L327.273,104.481L328.327,106.736L330.399,107.088L331.473,108.093L331.665,111.087L329.728,112.088L327.819,113.021L323.427,113.968L320.08,116.159L315.573,116.592L309.876,116.028L305.877,116.01L303.125,116.195L300.89,118.107L297.495,119.288L293.65,122.814L290.581,125.272L292.844,124.834L297.121,121.335L302.712,119.113L306.692,118.851L309.051,120.154L306.539,121.944L307.383,124.816L308.255,126.827L311.717,128.157L316.119,127.769L318.785,124.776L318.967,126.71L320.694,127.675L317.395,129.42L311.497,131.002L308.85,132.08L305.877,134.001L303.853,133.802L303.748,131.548L308.38,129.347L304.112,129.433ZM175.873,55.214L174.54,56.463L180.467,55.656L184.169,56.999L187.18,55.638L189.616,56.512L191.793,59.127L193.135,58.027L191.246,55.295L193.586,54.907L196.233,55.331L199.216,56.409L200.894,59.001L201.719,60.881L206.188,62.202L211.002,63.46L210.705,64.633L206.331,64.849L208.039,65.873L207.137,66.851L202.313,66.432L197.729,65.71L194.641,65.873L189.635,66.779L182.884,67.176L178.146,67.428L176.698,66.17L173.063,65.444L170.704,65.742L167.415,63.632L169.189,63.352L173.303,62.897L177.062,63.014L180.534,62.55L175.384,61.927L169.688,62.139L165.909,62.085L164.509,61.107L170.685,60.038L166.58,60.079L161.929,59.375L164.164,57.378L166.015,56.318L173.15,54.7ZM201.623,54.416L199.283,56.174L195.121,54.312L196.032,53.938L199.599,53.83ZM276.637,55.263L276.876,55.998L274.038,55.922L271.17,55.863L268.255,56.224L267.488,56.061L264.553,54.65L264.668,53.69L265.944,53.514L272.043,53.798ZM249.41,55.115L251.511,56.778L253.966,54.628L260.717,53.537L265.292,56.291L264.889,58.036L270.163,57.261L272.686,56.201L278.593,57.549L282.266,58.821L282.611,59.984L287.55,59.38L290.331,61.075L296.757,62.13L299.078,63.203L301.6,65.697L296.709,66.937L302.981,68.677L307.21,69.263L311.046,71.711L315.237,71.887L314.403,73.754L309.732,76.852L306.452,75.711L302.261,73.15L298.819,73.483L298.483,75.007L301.283,76.558L304.899,77.785L305.992,78.493L307.728,81.126L306.807,83.042L303.451,82.321L296.766,80.188L300.535,82.483L303.307,84.093L303.738,85.021L296.517,83.957L290.801,82.411L287.569,81.117L288.5,80.364L284.529,78.993L280.645,77.704L280.693,78.475L272.992,78.899L270.739,77.983L272.494,76.022L277.5,75.977L282.976,75.634L282.093,74.683L283.014,73.357L286.467,70.76L285.728,69.583L284.702,68.668L280.626,67.379L275.227,66.472L276.934,65.796L274.114,64.141L271.765,63.988L269.665,63.082L268.236,63.871L263.412,64.213L253.716,63.618L248.077,62.834L243.762,62.432L241.546,61.499L244.328,60.282L240.549,60.273L239.705,57.572L241.748,55.191L244.491,54.105L251.367,53.392ZM212.661,53.289L215.835,53.848L220.592,53.509L221.282,54.285L218.799,55.561L222.827,56.706L222.347,59.105L217.983,60.137L215.413,59.912L213.572,58.897L206.955,56.841L207.003,55.989L212.44,56.318L209.506,54.578ZM231.736,56.143L228.878,58.135L225.838,58.036L224.179,55.696L224.217,54.371L225.608,53.239L228.255,52.513L233.807,52.603L238.89,53.252L234.91,55.624ZM159.11,59.84L152.099,61.125L150.69,59.957L144.542,58.55L145.684,57.423L147.525,55.475L149.836,53.726L147.228,52.094L156.233,51.674L160.04,52.229L166.839,52.378L169.429,53.149L172.287,54.271L168.94,54.943L162.409,56.814L159.11,58.681ZM230.623,50.263L229.175,51.296L225.31,51.097L222.078,50.398L223.498,49.199L227.324,48.482L229.655,49.42ZM217.609,45.628L219.643,46.859L219.729,48.225L218.511,50.209L214.119,50.48L211.261,50.056L211.309,48.5L206.945,48.708L206.773,46.647L209.64,46.728L213.658,45.822L217.398,45.975ZM191.735,47.008L192.781,47.955L195.149,47.508L197.94,47.625L198.41,48.929L196.789,50.195L187.775,50.606L181.052,51.76L176.995,51.823L176.66,50.953L182.193,49.776L170.158,50.092L166.427,49.614L170.062,47.012L172.574,46.268L180.074,47.166L184.802,48.744L189.453,48.947L185.646,46.399L188.091,45.43L190.834,45.736ZM227.775,44.618L230.729,45.475L235.975,45.47L238.276,46.345L237.662,47.346L240.722,47.95L242.419,48.581L246.006,48.699L249.899,48.924L254.129,48.347L259.557,48.117L263.882,48.306L266.74,49.312L267.334,50.412L265.666,51.12L261.695,51.692L258.291,51.368L250.647,51.778L245.181,51.828L240.875,51.499L233.798,50.642L232.877,49.177L232.551,47.855L229.875,46.692L224.371,46.368L221.282,45.542L222.28,44.451ZM170.455,43.162L170.09,45.209L168.038,46.133L165.554,46.264L160.596,47.4L156.338,47.81L152.723,47.233L157.249,45.24L162.716,43.513L166.801,43.554ZM230.019,43.495L228.811,43.572L223.814,43.401L223.105,42.657L228.465,42.697L230.336,43.189ZM186.47,43.022L181.503,43.788L177.561,42.927L179.709,42.08L183.603,41.809L187.362,42.224ZM187.871,40.614L184.619,41.133L180.198,41.128L180.246,40.75L182.98,39.952L184.408,40.073ZM224.716,42.066L220.774,42.616L218.607,41.994L217.466,40.998L217.255,39.893L220.707,40.001L222.261,40.177L225.445,41.101ZM213.447,41.349L214.483,42.463L210.139,42.165L205.756,41.3L199.82,41.205L202.39,40.411L199.177,39.771L198.976,38.748L204.212,39.113L211.414,40.082ZM248.192,37.796L251.395,38.653L247.742,39.447L242.822,41.453L238.104,41.642L232.589,41.3L229.722,40.218L229.76,39.248L231.87,38.54L226.998,38.558L224.064,37.675L222.376,36.466L224.227,35.285L226.068,34.473L228.801,34.284L227.631,33.675L233.826,33.54L237.231,34.96L241.719,35.533L246.083,36.038ZM297.524,28.612L304.64,28.824L310.365,29.162L315.237,29.888L315.122,30.596L308.62,31.755L302.175,32.291L299.768,32.891L305.57,32.877L299.279,34.491L294.944,35.244L290.379,37.422L284.884,37.864L283.187,38.405L275.121,38.694L278.794,39.027L276.953,39.501L279.159,40.817L276.627,41.728L272.513,42.481L271.247,43.527L267.526,44.321L267.9,44.925L272.455,44.821L272.513,45.47L265.397,47.071L258.435,46.336L250.609,46.746L246.639,46.426L241.604,46.286L241.268,45.006L246.198,44.406L244.884,42.481L246.514,42.296L253.63,43.446L249.995,41.737L245.68,41.227L247.838,40.195L252.556,39.559L253.313,38.63L249.554,37.589L248.423,36.218L255.701,36.335L257.811,36.624L261.964,35.65L255.97,35.344L246.648,35.515L241.94,34.609L239.715,33.531L236.608,32.751L236.023,31.84L239.983,31.335L243.09,31.25L248.317,30.817L252.239,29.825L255.538,29.96L258.415,30.708L260.439,29.27L263.959,28.842L268.734,28.549L276.876,28.441L278.296,28.725L285.987,28.274L291.751,28.445Z" class="country" id="path124" data_id="124"></path><path d="M260.842,188.228L263.143,188.417L265.244,188.449L267.747,189.355L268.802,190.329L271.295,190.031L272.235,190.654L274.488,192.304L276.148,193.508L277.03,193.472L278.612,194.013L278.42,194.766L280.386,194.874L282.4,195.965L282.084,196.587L280.31,196.925L278.516,197.056L276.685,196.849L272.868,197.106L274.652,195.622L273.568,194.928L271.851,194.752L270.931,193.981L270.298,192.466L268.792,192.57L266.308,191.853L265.512,191.294L262.041,190.884L261.11,190.365L262.108,189.698L259.49,189.563L257.581,190.947L256.478,190.983L256.095,191.632L254.771,191.925L253.64,191.673L255.04,190.848L255.615,189.887L256.823,189.296L258.185,188.773L260.199,188.521Z" class="country" id="path192" data_id="192"></path><path d="M288.97,197.484L289.296,197.029L291.377,197.043L292.959,197.728L293.659,197.66L294.139,198.603L295.596,198.553L295.51,199.347L296.699,199.441L298.003,200.42L297.016,201.502L295.75,200.925L294.532,201.037L293.65,200.911L293.17,201.394L292.153,201.56L291.741,200.911L290.859,201.294L289.794,203.12L289.113,202.697L288.979,201.93L289.027,201.204L288.346,200.406L288.998,199.96L289.2,198.932Z" class="country" id="path214" data_id="214"></path><path d="M239.993,213.41L238.631,212.945L236.962,212.896L235.744,212.368L234.315,211.268L234.383,210.492L234.689,209.87L234.315,209.37L235.591,207.201L239.015,207.192L239.082,206.286L238.65,206.123L238.353,205.546L237.365,204.933L236.377,204.04L237.576,204.036L237.586,202.534L240.07,202.53L242.534,202.561L242.515,204.671L242.304,207.679L243.1,207.679L243.963,208.161L244.193,207.765L244.98,208.103L243.762,209.117L242.505,209.866L242.314,210.375L242.525,210.898L241.968,211.574L241.345,211.741L241.489,212.052L240.99,212.35L240.079,213.022Z" class="country" id="path320" data_id="320"></path><path d="M247.396,215.411L246.936,214.577L246.13,214.347L246.313,213.279L245.948,212.99L245.402,212.801L244.232,213.116L244.136,212.76L243.33,212.332L242.755,211.8L241.968,211.574L242.525,210.898L242.314,210.375L242.505,209.866L243.762,209.117L244.98,208.103L245.258,208.206L245.843,207.737L246.6,207.701L246.85,207.918L247.262,207.787L248.499,208.026L249.727,207.958L250.59,207.661L250.897,207.363L251.75,207.503L252.383,207.683L253.083,207.62L253.611,207.39L254.829,207.76L255.251,207.819L256.066,208.315L256.833,208.91L257.802,209.32L258.502,210.05L257.591,209.996L257.226,210.362L256.296,210.709L255.625,210.709L255.04,211.051L254.503,210.93L254.052,210.524L253.774,210.601L253.429,211.236L253.17,211.214L253.131,211.759L252.201,212.494L251.712,212.81L251.434,213.144L250.647,212.602L250.072,213.315L249.516,213.297L248.892,213.36L248.95,214.668L248.557,214.69L248.221,215.299Z" class="country" id="path340" data_id="340"></path><path d="M288.97,197.484L289.2,198.932L288.998,199.96L288.346,200.406L289.027,201.204L288.979,201.93L287.205,201.479L285.949,201.664L284.328,201.47L283.081,201.966L281.652,201.137L281.882,200.28L284.338,200.65L286.351,200.862L287.31,200.271L286.093,199.117L286.112,198.098L284.433,197.683L285.028,196.948L286.658,197.065Z" class="country" id="path332" data_id="332"></path><path d="M273.366,200.744L275.16,200.983L276.57,201.624L277.011,202.349L275.141,202.399L274.335,202.845L272.839,202.417L271.314,201.448L271.64,200.839L272.753,200.654Z" class="country" id="path388" data_id="388"></path><path d="M294.618,296.831L293.908,298.198L292.537,298.878L289.861,297.345L289.631,296.254L284.347,293.581L279.571,290.668L277.519,289.022L276.416,286.822L276.857,286.055L274.594,282.561L271.966,277.646L269.454,272.34L268.36,271.127L267.526,269.165L265.455,267.425L263.556,266.347L264.419,265.157L263.134,262.619L263.959,260.752L266.078,259.07L266.394,260.179L265.637,260.815L265.714,261.789L266.807,261.577L267.89,261.866L269.003,263.209L270.509,262.114L271.017,260.319L272.647,258.002L275.85,256.951L278.756,254.16L279.581,252.429L279.216,250.404L279.926,250.152L281.691,251.414L282.544,252.672L283.781,253.358L285.345,256.153L287.33,256.487L288.797,255.779L289.766,256.243L291.358,256.013L293.4,257.258L291.684,259.972L292.48,260.035L293.813,261.451L291.405,261.325L291.051,261.726L288.874,262.24L285.824,264.052L285.632,265.292L284.951,266.221L285.22,267.659L283.609,268.43L283.609,269.558L282.909,270.045L284.011,272.443L285.498,274.062L284.932,275.207L286.697,275.36L287.704,276.781L290.053,276.848L292.24,275.279L292.067,279.328L293.276,279.635L294.781,279.175L297.083,283.463L296.507,284.365L296.383,286.236L296.325,288.504L295.289,289.834L295.759,290.821L295.155,291.718L296.296,293.955Z" class="country" id="path604" data_id="604"></path><path d="M313.012,309.271L314.067,306.079L314.134,304.645L315.41,302.301L320.051,301.525L322.525,301.566L325.009,302.927L325.048,303.748L325.834,305.231L325.661,308.847L328.471,309.357L329.565,308.834L331.358,309.555L331.857,310.353L332.106,312.793L332.422,313.821L333.41,313.938L334.408,313.505L335.367,313.987L335.367,315.453L335.002,317.031L334.484,318.568L334.053,320.917L331.636,322.96L329.526,323.388L326.534,322.978L323.849,322.256L326.467,318.208L326.083,317.031L323.341,315.989L320.09,314.019L317.913,313.618Z" class="country" id="path600" data_id="600"></path><path d="M315.688,221.336L317.222,220.989L317.778,221.084L317.673,223.067L315.448,223.36L314.968,223.122L315.745,222.387Z" class="country" id="path780" data_id="780"></path><path d="M65.654,199.162L65.261,199.608L64.599,199.229L64.676,198.485L64.235,197.512L64.369,197.218L64.829,196.781L64.647,196.258L64.8,196.01L65.002,196.06L66.028,196.511L66.498,196.741L66.929,197.097L67.61,198.03L67.543,198.179L66.508,198.747ZM64.225,195.005L63.324,195.199L62.873,194.635L62.566,194.418L62.537,194.252L62.796,194.026L63.746,194.279L64.446,194.685ZM62.413,193.589L62.326,193.873L60.897,193.796L61.099,193.472ZM60.025,193.201L59.881,193.354L59.699,193.318L58.768,193.224L58.433,192.624L58.327,192.516L59.037,192.146L59.257,192.317ZM55.517,191.443L55.201,191.704L54.309,191.222L54.443,191.028L54.856,190.766L55.469,190.82ZM301.149,129.758L301.609,130.632L298.771,131.922L296.028,132.842L293.218,133.631L291.808,135.213L291.358,135.813L291.329,137.224L292.211,138.636L293.314,138.703L293.036,137.729L293.832,138.32L293.621,139.082L291.818,139.515L290.542,139.465L288.576,139.93L287.416,140.06L285.862,140.191L283.647,140.962L287.56,140.462L288.346,140.967L284.616,141.765L282.918,141.769L282.995,141.445L282.189,142.184L282.976,142.306L282.4,144.218L280.454,146.269L280.262,145.584L279.677,145.448L278.804,144.781L279.351,146.215L280.012,146.688L280.06,147.694L279.207,148.731L277.701,150.859L277.461,150.751L278.286,148.938L276.924,147.924L276.608,145.71L276.1,146.86L276.665,148.55L274.91,148.131L276.742,148.992L276.857,151.526L277.615,151.711L277.893,152.631L278.267,155.296L276.579,157.275L273.817,158.064L272.072,159.624L270.739,159.795L269.387,160.774L269.013,161.671L266.088,163.398L264.582,164.665L263.326,166.248L262.913,168.137L263.393,169.99L264.275,172.267L265.464,174.151L265.474,175.306L266.74,178.394L266.653,180.189L266.538,181.226L265.877,182.853L265.081,183.192L263.767,182.867L263.345,181.699L262.338,181.086L260.918,178.795L259.681,176.758L259.279,175.716L259.825,173.944L259.087,172.479L257.006,170.251L255.97,169.846L253.275,171.054L252.805,170.919L251.511,169.679L249.842,169.016L246.831,169.354L244.462,169.056L242.429,169.241L241.335,169.656L241.815,170.364L241.767,171.446L242.333,171.974L241.825,172.321L240.837,171.929L239.839,172.434L237.902,172.352L235.917,170.946L233.596,171.275L231.659,170.657L230,170.846L227.756,171.469L225.33,173.444L222.683,174.593L221.225,175.865L220.621,177.064L220.592,178.899L220.726,180.18L221.225,181.086L220.189,181.167L218.3,180.581L216.219,179.751L215.471,178.502L214.886,176.636L213.313,175.116L212.392,173.556L211.059,171.735L209.18,170.671L207.003,170.72L205.325,172.826L203.119,172.028L201.738,171.225L201.076,169.76L200.194,168.367L198.611,167.194L197.25,166.356L196.271,165.409L191.659,165.409L191.659,166.509L189.539,166.509L184.245,166.527L178.165,164.651L174.147,163.357L174.396,162.834L171.011,163.123L167.981,163.33L167.539,161.969L165.813,160.436L164.567,160.116L164.279,159.354L162.783,159.218L161.824,158.501L159.349,158.235L158.669,157.807L158.352,156.346L155.763,153.668L153.547,149.966L153.643,149.349L152.464,148.469L150.402,146.237L150.037,144.064L148.618,142.608L149.203,140.403L149.107,138.117L148.254,136.075L149.299,133.563L149.625,131.146L149.942,128.73L149.462,125.159L148.618,122.877L147.851,121.642L148.167,121.123L152.023,122.025L153.442,124.541L154.104,123.838L153.672,121.655L152.771,119.469L160.328,119.469L168.24,119.469L170.858,119.469L178.98,119.469L186.835,119.469L194.833,119.469L202.822,119.469L211.875,119.469L220.995,119.469L226.509,119.469L226.519,118.445L227.42,118.432L227.89,119.897L228.715,120.348L230.575,120.51L233.299,120.934L235.879,121.759L238.036,121.412L241.316,122.106L242.189,122.079L244.567,121.326L247.07,122.291L249.679,123.324L251.827,124.212L253.898,125.064L254.157,125.763L254.781,126.024L254.618,126.291L255.337,126.372L255.855,126.097L255.989,126.728L256.526,127.147L257.255,127.147L257.648,127.476L257.313,127.95L260.094,129.199L260.66,131.615L261.197,133.933L260.42,135.507L259.163,136.972L258.578,137.905L258.521,138.18L258.818,138.563L259.72,138.983L260.391,138.983L263.489,137.558L266.231,137.139L269.713,135.818L269.761,135.547L269.521,134.731L269.099,134.208L270.298,133.789L272.916,133.775L275.361,133.78L276.215,132.738L276.541,132.531L279.36,130.614L280.559,130.123L284.606,130.105L289.516,130.105L289.785,129.447L290.638,129.311L291.77,128.901L292.719,127.688L293.525,125.614L295.558,123.603L296.44,124.302L298.234,123.851L299.413,124.622L299.413,128.252ZM72.405,97.849L69.749,98.863L68.387,98.178L67.975,96.929L70.392,95.982L71.811,95.577L73.585,95.757L74.707,96.582ZM38.917,90.405L37.277,90.82L35.531,90.324L33.92,89.598L36.548,89.143L38.658,89.386ZM22.527,80.089L24.167,80.598L25.826,80.323L27.984,81.027L30.631,81.383L30.41,81.671L28.387,82.235L26.363,81.658L25.347,81.175L22.997,81.329L22.364,81.094ZM104.427,64.295L104.408,74.182L104.398,89.35L107.016,89.427L109.615,90.166L111.476,91.334L113.844,93.083L116.434,91.595L119.109,90.73L120.519,92.109L122.312,93.2L124.758,94.4L126.417,96.312L129.141,99.35L133.677,101.046L133.744,102.728L132.267,104.013L130.8,103.007L128.45,102.159L127.702,99.837L124.269,97.682L122.83,95.166L120.27,94.995L116.04,94.927L112.914,94.161L107.409,91.397L104.858,90.892L100.198,89.941L96.505,90.171L91.269,88.944L88.104,87.808L85.141,88.372L85.697,90.225L84.22,90.396L81.142,90.951L78.792,91.848L75.839,92.416L75.465,90.847L76.663,88.232L79.493,87.411L78.764,86.744L75.369,88.227L73.547,90.004L69.711,91.897L71.657,93.191L69.145,95.103L66.277,96.221L63.611,97.033L62.95,98.21L58.787,99.585L57.953,100.838L54.836,101.975L53.005,101.772L50.521,102.516L47.816,103.422L45.601,104.31L41.027,105.072L40.614,104.626L43.53,103.381L46.129,102.561L48.967,101.1L52.276,100.802L53.59,99.707L57.282,98.115L57.876,97.578L59.842,96.641L60.303,94.621L61.655,93.047L58.586,93.854L57.723,93.394L56.284,94.364L54.549,93.011L53.829,93.967L52.832,92.641L50.166,93.705L48.536,93.705L48.305,92.118L48.785,91.144L47.068,90.193L43.606,90.703L41.353,89.454L39.531,88.813L39.521,87.307L37.469,86.171L38.504,84.638L40.672,83.15L41.621,81.784L43.779,81.59L45.611,82.014L47.759,80.729L49.686,80.959L51.72,80.134L51.221,78.917L49.734,78.439L51.7,77.411L50.07,77.442L47.241,78.019L46.426,78.61L44.326,78.019L40.566,78.321L36.663,77.681L35.541,76.608L32.175,75.062L35.915,73.948L41.861,72.645L44.047,72.645L43.683,73.979L49.303,73.876L47.145,72.225L43.865,71.211L41.976,69.876L39.415,68.74L35.762,67.897L37.248,66.504L41.976,66.418L45.333,65.201L45.965,63.907L48.689,62.64L51.288,62.333L56.332,61.152L58.787,61.332L62.882,59.912L66.92,60.471L68.848,61.67L70.027,61.156L74.525,61.314L74.371,61.927L78.447,62.383L81.161,62.117L86.771,62.955L91.893,63.208L93.945,63.555L97.493,63.122L101.531,63.92Z" class="country" id="path840" data_id="840"></path><path d="M289.977,218.631L289.9,219.257L288.337,219.569L289.209,220.777L289.181,222.17L288.001,223.721L289.008,225.831L290.159,225.66L290.753,223.735L289.929,222.797L289.794,220.781L293.113,219.695L292.748,218.441L293.678,217.603L294.637,219.474L296.507,219.514L298.234,221.002L298.339,221.882L300.727,221.909L303.575,221.634L305.1,222.824L307.143,223.158L308.629,222.323L308.668,221.652L311.967,221.494L315.16,221.453L312.897,222.242L313.808,223.5L315.937,223.699L317.951,225.011L318.382,227.143L319.763,227.085L320.809,227.711L318.699,229.276L318.469,230.245L319.38,231.237L318.718,231.733L317.078,232.162L317.126,233.393L316.407,234.127L318.21,236.147L318.565,236.9L317.586,237.915L314.614,238.911L312.696,239.326L311.928,239.957L309.809,239.29L307.833,238.947L307.335,239.195L308.533,239.885L308.418,241.671L308.792,243.348L311.046,243.578L311.19,244.137L309.291,244.895L308.984,246.022L307.881,246.459L305.906,247.081L305.388,247.897L303.316,248.069L301.849,246.662L301.034,244.006L300.324,243.073L299.365,242.487L300.708,241.161L300.622,240.562L299.864,239.773L299.327,238.001L299.538,236.093L300.132,235.196L300.612,233.762L299.663,233.302L298.147,233.609L296.229,233.465L295.155,233.749L293.276,231.458L291.732,231.12L288.308,231.377L287.675,230.444L287.013,230.223L286.917,229.668L287.234,228.681L287.032,227.608L286.438,227.022L286.102,225.8L284.721,225.619L285.46,224.064L285.786,222.161L286.562,221.169L287.589,220.407L288.269,219.077Z" class="country" id="path862" data_id="862"></path></g></svg>